<?xml version="1.0" encoding="utf-8"?>
<!-- Generator: Adobe Illustrator 27.5.0, SVG Export Plug-In . SVG Version: 6.00 Build 0)  -->
<svg version="1.1" xmlns="http://www.w3.org/2000/svg" xmlns:xlink="http://www.w3.org/1999/xlink" x="0px" y="0px"
	 viewBox="350 350 3000 3000"  xml:space="default">
<!-- <g id="Background"> -->
<!-- 	<g> -->
<!-- 		<g> -->
<!-- 			<rect style="fill:#FFFFFF;" width="3710" height="3710"/> -->
<!-- 		</g> -->
<!-- 	</g> -->
<!-- </g> -->
<g id="Illustration">
	<g>
		<path style="fill:#F4F7FA;" d="M1099.177,601.417c-97.423,139.98,16.808,366.92-127.751,472.196
			c-140.718,102.479-313.585-65.497-446.201,22.716c-196.73,130.859-160.804,729.643,126.826,1101.68
			c86.5,111.885,158.776,155.417,190.786,281.953c68.736,271.704-172.837,433.331-126.866,567.712
			c103.51,302.576,1695.424,556.473,2334.17-352.868c298.321-424.7,342.956-1037.97,76.416-1503.751
			C2644.924,349.394,1317.778,287.329,1099.177,601.417z"/>
		<g>
			<g>
				<defs>
					<path id="SVGID_1_" d="M1432.102,2693.452c62.042-101.621,6.651-273.676-63.097-375.067
						c-81.433-118.377-149.755-92.925-205.923-189.917c-104.578-180.586,89.374-342.871-1.645-533.347
						c-74.408-155.713-232.264-106.344-306.817-282.532c-53.798-127.135,2.538-213.949-80.757-309.178
						c-7.121-8.141-85.172-94.834-182.084-81.107c-97.813,13.856-157.632,121.91-177.905,196.888
						c-37.475,138.595,54.578,184.852,70.445,365.451c21.601,245.879-136.241,305.682-82.914,483.442
						c44.035,146.788,161.823,139.866,207.416,303.591c42.336,152.034-43.846,213.25-5.563,312.803
						C691.326,2813.501,1305.553,2900.73,1432.102,2693.452z"/>
				</defs>
				
					<linearGradient id="SVGID_00000104663896415473340350000018316933101502471327_" gradientUnits="userSpaceOnUse" x1="571.4212" y1="989.2137" x2="890.2368" y2="2110.5632">
					<stop  offset="0" style="stop-color:#AA80F9"/>
					<stop  offset="0.9964" style="stop-color:#6165D7"/>
				</linearGradient>
				
					<use xlink:href="#SVGID_1_"  style="overflow:visible;fill:url(#SVGID_00000104663896415473340350000018316933101502471327_);"/>
				<clipPath id="SVGID_00000043426560181707044730000015589431756850587530_">
					<use xlink:href="#SVGID_1_"  style="overflow:visible;"/>
				</clipPath>
				<g style="clip-path:url(#SVGID_00000043426560181707044730000015589431756850587530_);">
					<path style="opacity:0.7;fill:#FFFFFF;" d="M1347.707,2853.705c-0.081,0-0.162-0.005-0.245-0.015
						c-104.874-12.992-202.429-47.356-289.956-102.134c-82.992-51.941-168.801-105.646-205.809-202.962
						c-28.109-73.919-11.064-127.366,10.514-195.031c20.69-64.873,46.438-145.611,35.238-269.756
						c-6.393-70.867-14.349-159.065-73.954-243.157c-34.631-48.853-68.789-70.172-98.928-88.981
						c-31.227-19.49-58.196-36.321-72.761-78.712c-23.444-68.227-6.355-125.79,13.435-192.439
						c12.059-40.616,24.529-82.616,29.847-132.51c14.956-140.31-48.894-292.812-189.775-453.27
						c-0.719-0.821-0.638-2.068,0.181-2.788c0.823-0.717,2.066-0.64,2.788,0.181c141.639,161.323,205.81,314.842,190.733,456.295
						c-5.356,50.255-17.879,92.43-29.989,133.217c-19.597,65.999-36.519,123-13.487,190.031
						c14.11,41.065,39.268,56.766,71.117,76.644c30.454,19.005,64.969,40.547,100.057,90.048
						c60.222,84.959,68.232,173.745,74.668,245.085c11.271,124.94-14.611,206.098-35.409,271.311
						c-21.346,66.93-38.204,119.795-10.585,192.427c36.533,96.074,121.773,149.422,204.205,201.013
						c87.041,54.474,184.054,88.645,288.352,101.564c1.083,0.135,1.85,1.121,1.718,2.204
						C1349.542,2852.972,1348.69,2853.705,1347.707,2853.705z"/>
					<path style="opacity:0.7;fill:#FFFFFF;" d="M850.58,1883.271c-0.278,0-0.56-0.059-0.828-0.185
						c-0.99-0.457-1.421-1.631-0.962-2.621c87.406-188.73,103.232-335.654,101.116-425.675
						c-2.288-97.377-25.436-150.758-25.67-151.288c-0.44-0.997,0.01-2.164,1.009-2.604c1.002-0.441,2.164,0.01,2.606,1.007
						c0.236,0.535,23.699,54.638,26.005,152.792c2.126,90.44-13.754,238.01-101.482,427.427
						C852.04,1882.847,851.326,1883.271,850.58,1883.271z"/>
					<path style="opacity:0.7;fill:#FFFFFF;" d="M900.81,2187.152c-0.179,0-0.362-0.024-0.541-0.076
						c-107.067-30.463-198.911-77.794-272.98-140.679c-59.279-50.329-107.362-110.67-142.915-179.347
						c-60.539-116.94-63.733-218.968-63.757-219.986c-0.028-1.09,0.835-1.995,1.926-2.023c0.961-0.048,1.993,0.835,2.023,1.926
						c0.026,1.009,3.221,102.275,63.402,218.432c35.326,68.186,83.092,128.095,141.972,178.064
						c73.619,62.479,164.935,109.518,271.409,139.812c1.05,0.298,1.659,1.392,1.361,2.44
						C902.461,2186.585,901.671,2187.152,900.81,2187.152z"/>
					<path style="opacity:0.7;fill:#FFFFFF;" d="M966.926,2696.507c-0.567,0-1.131-0.241-1.521-0.712
						c-0.697-0.84-0.583-2.085,0.257-2.781c183.084-152.097,244.185-311.141,263.202-417.781
						c20.609-115.55-2.368-196.195-2.602-196.997c-0.307-1.047,0.293-2.144,1.34-2.45c1.047-0.31,2.143,0.292,2.45,1.34
						c0.238,0.807,23.454,82.173,2.74,198.582c-19.1,107.346-80.514,267.408-264.606,420.345
						C967.818,2696.359,967.371,2696.507,966.926,2696.507z"/>
					<path style="opacity:0.7;fill:#FFFFFF;" d="M694.851,1325.855c-0.267,0-0.54-0.055-0.8-0.171
						c-175.415-77.92-248.35-206.769-278.645-301.139c-32.818-102.228-24.027-187.21-23.936-188.057
						c0.121-1.081,1.102-1.85,2.178-1.749c1.085,0.119,1.868,1.095,1.75,2.178c-0.091,0.84-8.786,85.12,23.82,186.576
						c30.064,93.547,102.428,221.286,276.436,298.58c0.997,0.443,1.447,1.611,1.004,2.607
						C696.331,1325.417,695.609,1325.855,694.851,1325.855z"/>
				</g>
			</g>
		</g>
		<g>
			<g>
				<g>
					<defs>
						<path id="SVGID_00000162324013045159838040000005610660988110866588_" d="M1714.809,2427.019
							c21.818,0.142,69.41-18.781,79.782-28.83c69.026-66.869,206.394-183.67,214.133-284.97
							c1.322-17.301-73.217-43.658-81.825-60.873c-43.444-28.34-60.273-35.476-88.339-82.709
							c-82.859-139.441,177.238-344.775-76.726-463.892c-186.025-87.251-359.227-42.621-297.332-341.405
							c61.894-298.785-102.585-880.926-449.677-713.813c-199.199,95.907-48.504,377.622-168.269,554.032
							c-113.807,167.635-57.71,326.001,118.615,459.853c176.324,133.851,63.026,202.93-15.701,366.235
							c-94.568,196.165,216.19,275.436,362.78,299.795C1430.298,2150.058,1717.65,2279.647,1714.809,2427.019z"/>
					</defs>
					
						<linearGradient id="SVGID_00000128453589927047228470000007209457031012970374_" gradientUnits="userSpaceOnUse" x1="1212.2239" y1="466.8546" x2="1823.4667" y2="4374.4531">
						<stop  offset="0.0036" style="stop-color:#E38DDD"/>
						<stop  offset="1" style="stop-color:#9571F6"/>
					</linearGradient>
					
						<use xlink:href="#SVGID_00000162324013045159838040000005610660988110866588_"  style="overflow:visible;fill:url(#SVGID_00000128453589927047228470000007209457031012970374_);"/>
					<clipPath id="SVGID_00000108303906110718375780000018306434235460211124_">
						<use xlink:href="#SVGID_00000162324013045159838040000005610660988110866588_"  style="overflow:visible;"/>
					</clipPath>
					<g style="opacity:0.7;clip-path:url(#SVGID_00000108303906110718375780000018306434235460211124_);">
						<g>
							<path style="fill:#FFFFFF;" d="M1898.349,2266.738l-1.645-1.097c-299.797-200.097-530.199-486.618-666.299-828.584
								c-129.444-325.234-172.557-694.341-124.677-1067.418l0.252-1.961l8.521,1.098l-0.252,1.959
								c-100.838,785.741,193.449,1491.446,787.223,1887.761l1.642,1.097L1898.349,2266.738z M1598.15,2008.575
								c89.614,94.77,189.709,179.49,299.106,252.683l0.379-0.571C1787.255,2186.84,1687.219,2102.306,1598.15,2008.575z
								 M1109.395,372.104c-13.906,109.078-20.021,217.832-18.46,325.213c-1.2-106.383,5.099-214.964,19.145-325.125
								L1109.395,372.104z"/>
							<path style="fill:#FFFFFF;" d="M1588.47,1999.88l-1.799-0.817c-186.076-84.628-493.588-124.76-685.503-89.448l-1.943,0.357
								l-1.55-8.448l1.942-0.359c193.368-35.572,503.176,4.834,690.609,90.078l1.799,0.818L1588.47,1999.88z M1060.462,1892.859
								c176.553,0,385.375,38.299,526.047,101.79l0.284-0.626c-186.355-84.125-492.312-124.039-684.518-89.328l0.124,0.678
								C949.404,1896.884,1003.258,1892.859,1060.462,1892.859z"/>
							<path style="fill:#FFFFFF;" d="M1781.775,2187.566l-1.276-1.511c-69.95-82.804-95.396-197.452-75.632-340.762
								c14.385-104.317,51.989-221.229,111.768-347.491l0.845-1.785l7.767,3.675l-0.847,1.785
								c-59.403,125.462-96.755,241.535-111.021,344.991c-19.417,140.793,5.372,253.18,73.68,334.042l1.274,1.507L1781.775,2187.566
								z M1819.361,1501.277c-59.12,125.219-96.319,241.127-110.58,344.556c-19.485,141.276,5.234,254.365,73.464,336.16
								l0.526-0.445c-68.098-81.638-92.763-194.544-73.307-335.618c14.255-103.363,51.439-219.218,110.521-344.356
								L1819.361,1501.277z"/>
							<path style="fill:#FFFFFF;" d="M1215.3,1392.263l-1.197-1.573c-120.297-158.231-319.451-223.274-465.336-249.974
								l-1.944-0.355l1.545-8.455l1.943,0.355c147.38,26.978,348.666,92.809,470.631,253.23l1.195,1.571L1215.3,1392.263z
								 M751.419,1137.186c145.911,26.959,343.982,92.142,464.631,249.543l0.548-0.417
								c-120.782-157.573-319.024-222.824-465.054-249.807L751.419,1137.186z"/>
							<path style="fill:#FFFFFF;" d="M1111.899,945.425l-8.572-0.536l0.124-1.973c14.325-228.115,171.007-409.182,263.128-496.811
								l1.431-1.362l5.92,6.229l-1.431,1.361c-91.209,86.758-246.332,265.927-260.476,491.122L1111.899,945.425z M1107.521,941.191
								l0.688,0.043c14.932-224.43,168.6-402.998,260.14-490.403l-0.478-0.502C1276.258,537.806,1122.468,716.534,1107.521,941.191z
								"/>
						</g>
					</g>
				</g>
			</g>
		</g>
		<g>
			<g>
				
					<linearGradient id="SVGID_00000062913894196759456490000009721464087802545318_" gradientUnits="userSpaceOnUse" x1="1847.8347" y1="2089.7715" x2="2599.1021" y2="2679.0012">
					<stop  offset="0" style="stop-color:#FF9085"/>
					<stop  offset="1" style="stop-color:#FB6FBB"/>
				</linearGradient>
				<path style="fill:url(#SVGID_00000062913894196759456490000009721464087802545318_);" d="M1505.277,2432.285v137.325
					l0.189,0.009c7.993,82.884,337.126,235.106,815.172,237.92c702.893,4.137,940.269-161.185,951.314-245.836h0.263v-126.537
					L1505.277,2432.285z"/>
				
					<linearGradient id="SVGID_00000021106944892566469380000000333006975842632350_" gradientUnits="userSpaceOnUse" x1="3859.0061" y1="2651.1572" x2="1674.4535" y2="2290.6584" gradientTransform="matrix(1 0.0219 0 1 0 -26.6952)">
					<stop  offset="0" style="stop-color:#311944"/>
					<stop  offset="1" style="stop-color:#893976"/>
				</linearGradient>
				<path style="fill:url(#SVGID_00000021106944892566469380000000333006975842632350_);" d="M3272.216,2435.675
					c0,85.364-405.563,152.77-897.758,150.592c-483.48-2.139-869.181-70.843-869.181-153.489
					c0-82.646,385.7-150.085,869.181-150.639C2866.653,2281.576,3272.216,2350.312,3272.216,2435.675z"/>
				
					<linearGradient id="SVGID_00000180327058571553487280000004908939230433487239_" gradientUnits="userSpaceOnUse" x1="2390.864" y1="2528.3521" x2="2384.4502" y2="2201.2571" gradientTransform="matrix(1 0.0219 0 1 0 -26.6952)">
					<stop  offset="0" style="stop-color:#FF9085"/>
					<stop  offset="1" style="stop-color:#FB6FBB"/>
				</linearGradient>
				<path style="fill:url(#SVGID_00000180327058571553487280000004908939230433487239_);" d="M3265.37,2425.287
					c0,84.722-402.465,151.764-891.023,149.774c-480.036-1.955-863.081-70.044-863.081-152.11
					c0-82.065,383.045-149.134,863.081-149.811C2862.905,2272.451,3265.37,2340.564,3265.37,2425.287z"/>
				
					<linearGradient id="SVGID_00000135656813126489212460000001032315653466445469_" gradientUnits="userSpaceOnUse" x1="1853.1842" y1="2082.3391" x2="2599.5759" y2="2667.7451">
					<stop  offset="0" style="stop-color:#FF9085"/>
					<stop  offset="1" style="stop-color:#FB6FBB"/>
				</linearGradient>
				<polygon style="fill:url(#SVGID_00000135656813126489212460000001032315653466445469_);" points="3272.216,2561.703 
					3272.216,2435.166 1505.277,2432.285 1505.277,2569.611 				"/>
				
					<linearGradient id="SVGID_00000013878293924589458210000011889909918868062647_" gradientUnits="userSpaceOnUse" x1="3859.0061" y1="2651.1572" x2="1674.4535" y2="2290.6584" gradientTransform="matrix(1 0.0219 0 1 0 -26.6952)">
					<stop  offset="0" style="stop-color:#311944"/>
					<stop  offset="1" style="stop-color:#893976"/>
				</linearGradient>
				<path style="fill:url(#SVGID_00000013878293924589458210000011889909918868062647_);" d="M3272.216,2435.675
					c0,85.364-405.563,152.77-897.758,150.592c-483.48-2.139-869.181-70.843-869.181-153.489
					c0-82.646,385.7-150.085,869.181-150.639C2866.653,2281.576,3272.216,2350.312,3272.216,2435.675z"/>
				
					<linearGradient id="SVGID_00000101796250133230984050000001937230611121251770_" gradientUnits="userSpaceOnUse" x1="2390.864" y1="2528.3521" x2="2384.4502" y2="2201.2571" gradientTransform="matrix(1 0.0219 0 1 0 -26.6952)">
					<stop  offset="0" style="stop-color:#FF9085"/>
					<stop  offset="1" style="stop-color:#FB6FBB"/>
				</linearGradient>
				<path style="fill:url(#SVGID_00000101796250133230984050000001937230611121251770_);" d="M3265.37,2425.287
					c0,84.722-402.465,151.764-891.023,149.774c-480.036-1.955-863.081-70.044-863.081-152.11
					c0-82.065,383.045-149.134,863.081-149.811C2862.905,2272.451,3265.37,2340.564,3265.37,2425.287z"/>
			</g>
			<g>
				
					<linearGradient id="SVGID_00000036950932780367323090000004595569024300215941_" gradientUnits="userSpaceOnUse" x1="1848.0769" y1="1829.3041" x2="2600.2336" y2="2419.2312">
					<stop  offset="0" style="stop-color:#FF9085"/>
					<stop  offset="1" style="stop-color:#FB6FBB"/>
				</linearGradient>
				<path style="fill:url(#SVGID_00000036950932780367323090000004595569024300215941_);" d="M1505.277,2172.015v137.325
					l0.189,0.009c7.993,82.884,337.125,227.891,815.172,225.302c757.538-4.102,940.269-148.568,951.314-233.218h0.263v-126.537
					L1505.277,2172.015z"/>
				
					<linearGradient id="SVGID_00000098218939739325418960000004996191009674622612_" gradientUnits="userSpaceOnUse" x1="3859.0061" y1="2390.8875" x2="1674.4535" y2="2030.3885" gradientTransform="matrix(1 0.0219 0 1 0 -26.6952)">
					<stop  offset="0" style="stop-color:#311944"/>
					<stop  offset="1" style="stop-color:#893976"/>
				</linearGradient>
				<path style="fill:url(#SVGID_00000098218939739325418960000004996191009674622612_);" d="M3272.216,2175.405
					c0,85.363-405.563,152.77-897.758,150.592c-483.48-2.139-869.181-70.843-869.181-153.489s385.7-150.085,869.181-150.639
					C2866.653,2021.306,3272.216,2090.042,3272.216,2175.405z"/>
				
					<linearGradient id="SVGID_00000153678491506516861830000016382845005950064828_" gradientUnits="userSpaceOnUse" x1="2390.864" y1="2268.0823" x2="2384.4502" y2="1940.9874" gradientTransform="matrix(1 0.0219 0 1 0 -26.6952)">
					<stop  offset="0" style="stop-color:#FF9085"/>
					<stop  offset="1" style="stop-color:#FB6FBB"/>
				</linearGradient>
				<path style="fill:url(#SVGID_00000153678491506516861830000016382845005950064828_);" d="M3265.37,2165.018
					c0,84.722-402.465,151.764-891.023,149.774c-480.036-1.956-863.081-70.044-863.081-152.11
					c0-82.065,383.045-149.133,863.081-149.81C2862.905,2012.181,3265.37,2080.294,3265.37,2165.018z"/>
				
					<linearGradient id="SVGID_00000146477984102225345390000008155793589780615820_" gradientUnits="userSpaceOnUse" x1="1853.1841" y1="1822.0692" x2="2599.5759" y2="2407.4751">
					<stop  offset="0" style="stop-color:#FF9085"/>
					<stop  offset="1" style="stop-color:#FB6FBB"/>
				</linearGradient>
				<polygon style="fill:url(#SVGID_00000146477984102225345390000008155793589780615820_);" points="3272.216,2301.433 
					3272.216,2174.896 1505.277,2172.015 1505.277,2309.341 				"/>
				
					<linearGradient id="SVGID_00000100382521633111756790000015951510283281642881_" gradientUnits="userSpaceOnUse" x1="3859.0061" y1="2390.8875" x2="1674.4535" y2="2030.3885" gradientTransform="matrix(1 0.0219 0 1 0 -26.6952)">
					<stop  offset="0" style="stop-color:#311944"/>
					<stop  offset="1" style="stop-color:#893976"/>
				</linearGradient>
				<path style="fill:url(#SVGID_00000100382521633111756790000015951510283281642881_);" d="M3272.216,2175.405
					c0,85.363-405.563,152.77-897.758,150.592c-483.48-2.139-869.181-70.843-869.181-153.489s385.7-150.085,869.181-150.639
					C2866.653,2021.306,3272.216,2090.042,3272.216,2175.405z"/>
				
					<linearGradient id="SVGID_00000147926611583929201270000013171066217111500968_" gradientUnits="userSpaceOnUse" x1="2390.864" y1="2268.0823" x2="2384.4502" y2="1940.9874" gradientTransform="matrix(1 0.0219 0 1 0 -26.6952)">
					<stop  offset="0" style="stop-color:#FF9085"/>
					<stop  offset="1" style="stop-color:#FB6FBB"/>
				</linearGradient>
				<path style="fill:url(#SVGID_00000147926611583929201270000013171066217111500968_);" d="M3265.37,2165.018
					c0,84.722-402.465,151.764-891.023,149.774c-480.036-1.956-863.081-70.044-863.081-152.11
					c0-82.065,383.045-149.133,863.081-149.81C2862.905,2012.181,3265.37,2080.294,3265.37,2165.018z"/>
			</g>
			<g>
				
					<linearGradient id="SVGID_00000078756254935570602440000016874932713086167995_" gradientUnits="userSpaceOnUse" x1="1848.0774" y1="1568.394" x2="2600.2339" y2="2158.3213">
					<stop  offset="0" style="stop-color:#FF9085"/>
					<stop  offset="1" style="stop-color:#FB6FBB"/>
				</linearGradient>
				<path style="fill:url(#SVGID_00000078756254935570602440000016874932713086167995_);" d="M1505.277,1911.106v137.324
					l0.189,0.009c7.993,82.884,337.125,227.891,815.172,225.302c757.538-4.102,940.269-148.568,951.314-233.219h0.263v-126.537
					L1505.277,1911.106z"/>
				
					<linearGradient id="SVGID_00000045592533503972768380000016968132705602255762_" gradientUnits="userSpaceOnUse" x1="3859.0061" y1="2129.9773" x2="1674.4536" y2="1769.4784" gradientTransform="matrix(1 0.0219 0 1 0 -26.6952)">
					<stop  offset="0" style="stop-color:#311944"/>
					<stop  offset="1" style="stop-color:#893976"/>
				</linearGradient>
				<path style="fill:url(#SVGID_00000045592533503972768380000016968132705602255762_);" d="M3272.216,1914.495
					c0,85.363-405.563,152.769-897.758,150.591c-483.48-2.139-869.181-70.843-869.181-153.489
					c0-82.646,385.7-150.084,869.181-150.639C2866.653,1760.396,3272.216,1829.132,3272.216,1914.495z"/>
				
					<linearGradient id="SVGID_00000174601892473865650710000016964680690306452900_" gradientUnits="userSpaceOnUse" x1="2390.864" y1="2007.1719" x2="2384.4502" y2="1680.0774" gradientTransform="matrix(1 0.0219 0 1 0 -26.6952)">
					<stop  offset="0" style="stop-color:#FF9085"/>
					<stop  offset="1" style="stop-color:#FB6FBB"/>
				</linearGradient>
				<path style="fill:url(#SVGID_00000174601892473865650710000016964680690306452900_);" d="M3265.37,1904.108
					c0,84.722-402.465,151.764-891.023,149.773c-480.036-1.956-863.081-70.043-863.081-152.11
					c0-82.065,383.045-149.133,863.081-149.81C2862.905,1751.271,3265.37,1819.385,3265.37,1904.108z"/>
				
					<linearGradient id="SVGID_00000021813283706947070100000011832129731313246615_" gradientUnits="userSpaceOnUse" x1="1853.1846" y1="1561.1592" x2="2599.5762" y2="2146.5647">
					<stop  offset="0" style="stop-color:#FF9085"/>
					<stop  offset="1" style="stop-color:#FB6FBB"/>
				</linearGradient>
				<polygon style="fill:url(#SVGID_00000021813283706947070100000011832129731313246615_);" points="3272.216,2040.523 
					3272.216,1913.986 1505.277,1911.106 1505.277,2048.43 				"/>
				
					<linearGradient id="SVGID_00000060018605410146211780000005040314165713654924_" gradientUnits="userSpaceOnUse" x1="3859.0061" y1="2129.9773" x2="1674.4536" y2="1769.4784" gradientTransform="matrix(1 0.0219 0 1 0 -26.6952)">
					<stop  offset="0" style="stop-color:#311944"/>
					<stop  offset="1" style="stop-color:#893976"/>
				</linearGradient>
				<path style="fill:url(#SVGID_00000060018605410146211780000005040314165713654924_);" d="M3272.216,1914.495
					c0,85.363-405.563,152.769-897.758,150.591c-483.48-2.139-869.181-70.843-869.181-153.489
					c0-82.646,385.7-150.084,869.181-150.639C2866.653,1760.396,3272.216,1829.132,3272.216,1914.495z"/>
				
					<linearGradient id="SVGID_00000164482815728955942660000017548882388662869395_" gradientUnits="userSpaceOnUse" x1="2390.864" y1="2007.1719" x2="2384.4502" y2="1680.0774" gradientTransform="matrix(1 0.0219 0 1 0 -26.6952)">
					<stop  offset="0" style="stop-color:#FF9085"/>
					<stop  offset="1" style="stop-color:#FB6FBB"/>
				</linearGradient>
				<path style="fill:url(#SVGID_00000164482815728955942660000017548882388662869395_);" d="M3265.37,1904.108
					c0,84.722-402.465,151.764-891.023,149.773c-480.036-1.956-863.081-70.043-863.081-152.11
					c0-82.065,383.045-149.133,863.081-149.81C2862.905,1751.271,3265.37,1819.385,3265.37,1904.108z"/>
			</g>
			<g>
				
					<linearGradient id="SVGID_00000107552281458440621630000010811273106131335863_" gradientUnits="userSpaceOnUse" x1="1848.077" y1="1307.484" x2="2600.2336" y2="1897.4113">
					<stop  offset="0" style="stop-color:#FF9085"/>
					<stop  offset="1" style="stop-color:#FB6FBB"/>
				</linearGradient>
				<path style="fill:url(#SVGID_00000107552281458440621630000010811273106131335863_);" d="M1505.277,1650.195v137.325
					l0.189,0.009c7.993,82.884,337.125,227.891,815.172,225.303c757.538-4.103,940.269-148.569,951.314-233.218h0.263v-126.537
					L1505.277,1650.195z"/>
				
					<linearGradient id="SVGID_00000158016515132981556140000018211925485458983065_" gradientUnits="userSpaceOnUse" x1="3859.0061" y1="1869.0674" x2="1674.4535" y2="1508.5685" gradientTransform="matrix(1 0.0219 0 1 0 -26.6952)">
					<stop  offset="0" style="stop-color:#311944"/>
					<stop  offset="1" style="stop-color:#893976"/>
				</linearGradient>
				<path style="fill:url(#SVGID_00000158016515132981556140000018211925485458983065_);" d="M3272.216,1653.585
					c0,85.363-405.563,152.769-897.758,150.591c-483.48-2.139-869.181-70.843-869.181-153.489
					c0-82.646,385.7-150.084,869.181-150.639C2866.653,1499.486,3272.216,1568.222,3272.216,1653.585z"/>
				
					<linearGradient id="SVGID_00000153702813012318988210000015890718072429370012_" gradientUnits="userSpaceOnUse" x1="2390.8638" y1="1746.2617" x2="2384.4502" y2="1419.1669" gradientTransform="matrix(1 0.0219 0 1 0 -26.6952)">
					<stop  offset="0" style="stop-color:#FF9085"/>
					<stop  offset="1" style="stop-color:#FB6FBB"/>
				</linearGradient>
				<path style="fill:url(#SVGID_00000153702813012318988210000015890718072429370012_);" d="M3265.37,1643.197
					c0,84.723-402.465,151.765-891.023,149.774c-480.036-1.955-863.081-70.043-863.081-152.109
					c0-82.066,383.045-149.134,863.081-149.811C2862.905,1490.361,3265.37,1558.474,3265.37,1643.197z"/>
				
					<linearGradient id="SVGID_00000096776075239757374680000002394754632516473273_" gradientUnits="userSpaceOnUse" x1="1853.1842" y1="1300.2491" x2="2599.5762" y2="1885.655">
					<stop  offset="0" style="stop-color:#FF9085"/>
					<stop  offset="1" style="stop-color:#FB6FBB"/>
				</linearGradient>
				<polygon style="fill:url(#SVGID_00000096776075239757374680000002394754632516473273_);" points="3272.216,1779.613 
					3272.216,1653.076 1505.277,1650.195 1505.277,1787.52 				"/>
				
					<linearGradient id="SVGID_00000160159797317492556420000005484819614046609842_" gradientUnits="userSpaceOnUse" x1="3859.0061" y1="1869.0674" x2="1674.4535" y2="1508.5685" gradientTransform="matrix(1 0.0219 0 1 0 -26.6952)">
					<stop  offset="0" style="stop-color:#311944"/>
					<stop  offset="1" style="stop-color:#893976"/>
				</linearGradient>
				<path style="fill:url(#SVGID_00000160159797317492556420000005484819614046609842_);" d="M3272.216,1653.585
					c0,85.363-405.563,152.769-897.758,150.591c-483.48-2.139-869.181-70.843-869.181-153.489
					c0-82.646,385.7-150.084,869.181-150.639C2866.653,1499.486,3272.216,1568.222,3272.216,1653.585z"/>
				
					<linearGradient id="SVGID_00000092446944864333596590000005099678865860328634_" gradientUnits="userSpaceOnUse" x1="2390.8638" y1="1746.2617" x2="2384.4502" y2="1419.1669" gradientTransform="matrix(1 0.0219 0 1 0 -26.6952)">
					<stop  offset="0" style="stop-color:#FF9085"/>
					<stop  offset="1" style="stop-color:#FB6FBB"/>
				</linearGradient>
				<path style="fill:url(#SVGID_00000092446944864333596590000005099678865860328634_);" d="M3265.37,1643.197
					c0,84.723-402.465,151.765-891.023,149.774c-480.036-1.955-863.081-70.043-863.081-152.109
					c0-82.066,383.045-149.134,863.081-149.811C2862.905,1490.361,3265.37,1558.474,3265.37,1643.197z"/>
			</g>
			<g>
				
					<linearGradient id="SVGID_00000075125169484270461090000006436654443721767586_" gradientUnits="userSpaceOnUse" x1="1848.0769" y1="1046.5741" x2="2600.2336" y2="1636.5013">
					<stop  offset="0" style="stop-color:#FF9085"/>
					<stop  offset="1" style="stop-color:#FB6FBB"/>
				</linearGradient>
				<path style="fill:url(#SVGID_00000075125169484270461090000006436654443721767586_);" d="M1505.277,1389.285v137.325
					l0.189,0.009c7.993,82.884,337.125,227.891,815.172,225.302c757.538-4.102,940.269-148.568,951.314-233.218h0.263v-126.537
					L1505.277,1389.285z"/>
				
					<linearGradient id="SVGID_00000151508243644555713220000017282438013886065824_" gradientUnits="userSpaceOnUse" x1="3859.0061" y1="1608.1573" x2="1674.4536" y2="1247.6584" gradientTransform="matrix(1 0.0219 0 1 0 -26.6952)">
					<stop  offset="0" style="stop-color:#311944"/>
					<stop  offset="1" style="stop-color:#893976"/>
				</linearGradient>
				<path style="fill:url(#SVGID_00000151508243644555713220000017282438013886065824_);" d="M3272.216,1392.675
					c0,85.363-405.563,152.769-897.758,150.591c-483.48-2.138-869.181-70.843-869.181-153.488
					c0-82.646,385.7-150.085,869.181-150.639C2866.653,1238.576,3272.216,1307.312,3272.216,1392.675z"/>
				
					<linearGradient id="SVGID_00000125594379317021996290000011865778917210193804_" gradientUnits="userSpaceOnUse" x1="2390.864" y1="1485.3521" x2="2384.4502" y2="1158.2574" gradientTransform="matrix(1 0.0219 0 1 0 -26.6952)">
					<stop  offset="0" style="stop-color:#FF9085"/>
					<stop  offset="1" style="stop-color:#FB6FBB"/>
				</linearGradient>
				<path style="fill:url(#SVGID_00000125594379317021996290000011865778917210193804_);" d="M3265.37,1382.287
					c0,84.723-402.465,151.765-891.023,149.774c-480.036-1.956-863.081-70.044-863.081-152.11
					c0-82.065,383.045-149.133,863.081-149.81C2862.905,1229.451,3265.37,1297.564,3265.37,1382.287z"/>
				
					<linearGradient id="SVGID_00000091725932416935012270000013706526953079709115_" gradientUnits="userSpaceOnUse" x1="1853.1842" y1="1039.3391" x2="2599.5759" y2="1624.7449">
					<stop  offset="0" style="stop-color:#FF9085"/>
					<stop  offset="1" style="stop-color:#FB6FBB"/>
				</linearGradient>
				<polygon style="fill:url(#SVGID_00000091725932416935012270000013706526953079709115_);" points="3272.216,1518.703 
					3272.216,1392.166 1505.277,1389.285 1505.277,1526.61 				"/>
				
					<linearGradient id="SVGID_00000142866426140593345510000005886291745968431541_" gradientUnits="userSpaceOnUse" x1="3859.0061" y1="1608.1573" x2="1674.4536" y2="1247.6584" gradientTransform="matrix(1 0.0219 0 1 0 -26.6952)">
					<stop  offset="0" style="stop-color:#311944"/>
					<stop  offset="1" style="stop-color:#893976"/>
				</linearGradient>
				<path style="fill:url(#SVGID_00000142866426140593345510000005886291745968431541_);" d="M3272.216,1392.675
					c0,85.363-405.563,152.769-897.758,150.591c-483.48-2.138-869.181-70.843-869.181-153.488
					c0-82.646,385.7-150.085,869.181-150.639C2866.653,1238.576,3272.216,1307.312,3272.216,1392.675z"/>
				
					<linearGradient id="SVGID_00000155830122424605118500000012397511510962110644_" gradientUnits="userSpaceOnUse" x1="2390.864" y1="1485.3521" x2="2384.4502" y2="1158.2574" gradientTransform="matrix(1 0.0219 0 1 0 -26.6952)">
					<stop  offset="0" style="stop-color:#FF9085"/>
					<stop  offset="1" style="stop-color:#FB6FBB"/>
				</linearGradient>
				<path style="fill:url(#SVGID_00000155830122424605118500000012397511510962110644_);" d="M3265.37,1382.287
					c0,84.723-402.465,151.765-891.023,149.774c-480.036-1.956-863.081-70.044-863.081-152.11
					c0-82.065,383.045-149.133,863.081-149.81C2862.905,1229.451,3265.37,1297.564,3265.37,1382.287z"/>
			</g>
			<g>
				
					<linearGradient id="SVGID_00000095327399209091358510000014773929442773452475_" gradientUnits="userSpaceOnUse" x1="1848.077" y1="785.6638" x2="2600.2336" y2="1375.5912">
					<stop  offset="0" style="stop-color:#FF9085"/>
					<stop  offset="1" style="stop-color:#FB6FBB"/>
				</linearGradient>
				<path style="fill:url(#SVGID_00000095327399209091358510000014773929442773452475_);" d="M1505.277,1128.375V1265.7l0.189,0.009
					c7.993,82.884,337.125,227.891,815.172,225.302c757.538-4.102,940.269-148.568,951.314-233.218h0.263v-126.537
					L1505.277,1128.375z"/>
				
					<linearGradient id="SVGID_00000068665993360498373710000000088455691510310283_" gradientUnits="userSpaceOnUse" x1="3859.0061" y1="1347.2471" x2="1674.4536" y2="986.7481" gradientTransform="matrix(1 0.0219 0 1 0 -26.6952)">
					<stop  offset="0" style="stop-color:#311944"/>
					<stop  offset="1" style="stop-color:#893976"/>
				</linearGradient>
				<path style="fill:url(#SVGID_00000068665993360498373710000000088455691510310283_);" d="M3272.216,1131.765
					c0,85.364-405.563,152.77-897.758,150.592c-483.48-2.139-869.181-70.844-869.181-153.489
					c0-82.646,385.7-150.085,869.181-150.639C2866.653,977.666,3272.216,1046.402,3272.216,1131.765z"/>
				
					<linearGradient id="SVGID_00000171692339592866317990000005695854869247413943_" gradientUnits="userSpaceOnUse" x1="2390.864" y1="1224.4419" x2="2384.4502" y2="897.347" gradientTransform="matrix(1 0.0219 0 1 0 -26.6952)">
					<stop  offset="0" style="stop-color:#FF9085"/>
					<stop  offset="1" style="stop-color:#FB6FBB"/>
				</linearGradient>
				<path style="fill:url(#SVGID_00000171692339592866317990000005695854869247413943_);" d="M3265.37,1121.377
					c0,84.722-402.465,151.764-891.023,149.774c-480.036-1.956-863.081-70.044-863.081-152.11
					c0-82.065,383.045-149.133,863.081-149.81C2862.905,968.541,3265.37,1036.654,3265.37,1121.377z"/>
				
					<linearGradient id="SVGID_00000007404013470464529300000001179562453669652650_" gradientUnits="userSpaceOnUse" x1="1853.1842" y1="778.429" x2="2599.5759" y2="1363.8348">
					<stop  offset="0" style="stop-color:#FF9085"/>
					<stop  offset="1" style="stop-color:#FB6FBB"/>
				</linearGradient>
				<polygon style="fill:url(#SVGID_00000007404013470464529300000001179562453669652650_);" points="3272.216,1257.793 
					3272.216,1131.256 1505.277,1128.375 1505.277,1265.7 				"/>
				
					<linearGradient id="SVGID_00000047774846672824912190000009635595130622073736_" gradientUnits="userSpaceOnUse" x1="3859.0061" y1="1347.2471" x2="1674.4536" y2="986.7481" gradientTransform="matrix(1 0.0219 0 1 0 -26.6952)">
					<stop  offset="0" style="stop-color:#311944"/>
					<stop  offset="1" style="stop-color:#893976"/>
				</linearGradient>
				<path style="fill:url(#SVGID_00000047774846672824912190000009635595130622073736_);" d="M3272.216,1131.765
					c0,85.364-405.563,152.77-897.758,150.592c-483.48-2.139-869.181-70.844-869.181-153.489
					c0-82.646,385.7-150.085,869.181-150.639C2866.653,977.666,3272.216,1046.402,3272.216,1131.765z"/>
				
					<linearGradient id="SVGID_00000062906950428843789190000006546737533108561047_" gradientUnits="userSpaceOnUse" x1="2390.864" y1="1224.4419" x2="2384.4502" y2="897.347" gradientTransform="matrix(1 0.0219 0 1 0 -26.6952)">
					<stop  offset="0" style="stop-color:#FF9085"/>
					<stop  offset="1" style="stop-color:#FB6FBB"/>
				</linearGradient>
				<path style="fill:url(#SVGID_00000062906950428843789190000006546737533108561047_);" d="M3265.37,1121.377
					c0,84.722-402.465,151.764-891.023,149.774c-480.036-1.956-863.081-70.044-863.081-152.11
					c0-82.065,383.045-149.133,863.081-149.81C2862.905,968.541,3265.37,1036.654,3265.37,1121.377z"/>
			</g>
			<g>
				
					<linearGradient id="SVGID_00000052078081409990705060000001578912744633751682_" gradientUnits="userSpaceOnUse" x1="1848.0769" y1="524.7535" x2="2600.2336" y2="1114.6808">
					<stop  offset="0" style="stop-color:#FF9085"/>
					<stop  offset="1" style="stop-color:#FB6FBB"/>
				</linearGradient>
				<path style="fill:url(#SVGID_00000052078081409990705060000001578912744633751682_);" d="M1505.277,867.465v137.326l0.189,0.008
					c7.993,82.884,337.125,227.891,815.172,225.303c757.538-4.103,940.269-148.568,951.314-233.219h0.263V870.346L1505.277,867.465z
					"/>
				
					<linearGradient id="SVGID_00000054225849457923296920000006525493974969921163_" gradientUnits="userSpaceOnUse" x1="3859.0063" y1="1086.337" x2="1674.4536" y2="725.8381" gradientTransform="matrix(1 0.0219 0 1 0 -26.6952)">
					<stop  offset="0" style="stop-color:#311944"/>
					<stop  offset="1" style="stop-color:#893976"/>
				</linearGradient>
				<path style="fill:url(#SVGID_00000054225849457923296920000006525493974969921163_);" d="M3272.216,870.855
					c0,85.363-405.563,152.769-897.758,150.591c-483.48-2.139-869.181-70.843-869.181-153.489s385.7-150.085,869.181-150.639
					C2866.653,716.755,3272.216,785.492,3272.216,870.855z"/>
				
					<linearGradient id="SVGID_00000163057841671836799020000011757399215202825345_" gradientUnits="userSpaceOnUse" x1="2390.864" y1="963.5318" x2="2384.4502" y2="636.4369" gradientTransform="matrix(1 0.0219 0 1 0 -26.6952)">
					<stop  offset="0" style="stop-color:#FF9085"/>
					<stop  offset="1" style="stop-color:#FB6FBB"/>
				</linearGradient>
				<path style="fill:url(#SVGID_00000163057841671836799020000011757399215202825345_);" d="M3265.37,860.467
					c0,84.722-402.465,151.764-891.023,149.774c-480.036-1.956-863.081-70.044-863.081-152.11
					c0-82.065,383.045-149.133,863.081-149.81C2862.905,707.631,3265.37,775.744,3265.37,860.467z"/>
				
					<linearGradient id="SVGID_00000085942215570540639090000000934413167922097822_" gradientUnits="userSpaceOnUse" x1="1853.1841" y1="517.5187" x2="2599.5759" y2="1102.9246">
					<stop  offset="0" style="stop-color:#FF9085"/>
					<stop  offset="1" style="stop-color:#FB6FBB"/>
				</linearGradient>
				<polygon style="fill:url(#SVGID_00000085942215570540639090000000934413167922097822_);" points="3272.216,996.882 
					3272.216,870.346 1505.277,867.465 1505.277,1004.79 				"/>
				
					<linearGradient id="SVGID_00000182494237741967176650000016174192998209427870_" gradientUnits="userSpaceOnUse" x1="3859.0063" y1="1086.337" x2="1674.4536" y2="725.8381" gradientTransform="matrix(1 0.0219 0 1 0 -26.6952)">
					<stop  offset="0" style="stop-color:#311944"/>
					<stop  offset="1" style="stop-color:#893976"/>
				</linearGradient>
				<path style="fill:url(#SVGID_00000182494237741967176650000016174192998209427870_);" d="M3272.216,870.855
					c0,85.363-405.563,152.769-897.758,150.591c-483.48-2.139-869.181-70.843-869.181-153.489s385.7-150.085,869.181-150.639
					C2866.653,716.755,3272.216,785.492,3272.216,870.855z"/>
				
					<linearGradient id="SVGID_00000141415950335853026010000013640425883883610264_" gradientUnits="userSpaceOnUse" x1="2390.864" y1="963.5318" x2="2384.4502" y2="636.4369" gradientTransform="matrix(1 0.0219 0 1 0 -26.6952)">
					<stop  offset="0" style="stop-color:#FF9085"/>
					<stop  offset="1" style="stop-color:#FB6FBB"/>
				</linearGradient>
				<path style="fill:url(#SVGID_00000141415950335853026010000013640425883883610264_);" d="M3265.37,860.467
					c0,84.722-402.465,151.764-891.023,149.774c-480.036-1.956-863.081-70.044-863.081-152.11
					c0-82.065,383.045-149.133,863.081-149.81C2862.905,707.631,3265.37,775.744,3265.37,860.467z"/>
			</g>
		</g>
		<g>
			<g>
				<ellipse style="fill:#B7C0CE;" cx="1423.287" cy="2839.334" rx="226.967" ry="92.631"/>
				<path style="fill:#EBEFF2;" d="M1196.321,2828.473c0,48.292,101.616,87.441,226.967,87.441
					c125.349,0,226.966-39.148,226.966-87.441c0-48.292-101.617-127.309-226.966-127.309
					C1297.937,2701.164,1196.321,2780.181,1196.321,2828.473z"/>
				<path style="opacity:0.3;fill:#EBEFF2;" d="M1196.321,2828.472c0-48.292,101.616-127.308,226.967-127.308
					c57.877,0,110.665,16.862,150.757,39.75c2.807,5.879,4.115,11.725,3.583,17.274c-2.603,27.172-46.918,43.875-72.354,49.385
					c-64.056,13.875-95.337-24.429-148.154-22.969c-32.652,0.902-77.901,17.306-131.572,86.778
					C1206.971,2858.703,1196.321,2844.071,1196.321,2828.472z"/>
				<path style="fill:#D8DEE8;" d="M1410.856,2761.68c9.067,2.258,17.529,2.169,25.49,0.146c7.219-1.833,12.175-8.516,12.175-15.964
					v-217.765h-50.468v217.462C1398.053,2753.239,1403.403,2759.825,1410.856,2761.68z"/>
				<g>
					
						<linearGradient id="SVGID_00000176761724939668961510000005456965405347627655_" gradientUnits="userSpaceOnUse" x1="-774.2914" y1="2624.687" x2="-940.7795" y2="2407.7478" gradientTransform="matrix(-1 0 0 1 230.2854 0)">
						<stop  offset="0" style="stop-color:#AB316D"/>
						<stop  offset="1" style="stop-color:#792D3D"/>
					</linearGradient>
					<path style="fill:url(#SVGID_00000176761724939668961510000005456965405347627655_);" d="M1689.96,2464.468l-77.099-48.739
						c-3.207-18.209-4.229-660.395-151.774-720.206c-60-24.324-216.777,5.073-252.211,6.655
						c-70.738,3.161-121.197,5.416-145.465,39.158c-31.162,43.329,77.985,507.829,67.162,631.769
						c-4.412,50.541-15.636,72.987-1.656,106.469c16.746,40.108,55.581,62.341,85.777,74.855
						c36.094,20.959,98.941,50.828,181.948,58.103c139.817,12.252,244.199-47.725,280.094-70.673
						c15.963-5.032,27.955-18.304,31.348-34.694C1711.526,2490.549,1704.305,2473.536,1689.96,2464.468z"/>
					
						<linearGradient id="SVGID_00000168796682513277526980000006830222701417879431_" gradientUnits="userSpaceOnUse" x1="-1147.0342" y1="2251.5215" x2="-913.2928" y2="1631.9227" gradientTransform="matrix(-1 0 0 1 230.2854 0)">
						<stop  offset="0" style="stop-color:#AB316D"/>
						<stop  offset="1" style="stop-color:#792D3D"/>
					</linearGradient>
					<path style="fill:url(#SVGID_00000168796682513277526980000006830222701417879431_);" d="M1193.33,1712.362
						c-52.319,1.55-84.832,0.94-102.814,24.301c-18.875,24.521,57.083,470.627,60.62,557.931
						c3.225,79.59-10.809,111.061,14.912,155.168c0,0,13.069,22.414,33.702,39.248c72.913,59.494,261.031,58.774,340.206-65.434
						c63.167-99.092-20.052-670.362-94.269-718.693C1409.328,1681.206,1400.982,1706.211,1193.33,1712.362z"/>
					
						<linearGradient id="SVGID_00000129169042437136793390000016890040459265339042_" gradientUnits="userSpaceOnUse" x1="-1219.9043" y1="2442.1072" x2="-1221.7188" y2="2596.343" gradientTransform="matrix(-1 0 0 1 230.2854 0)">
						<stop  offset="0" style="stop-color:#AB316D"/>
						<stop  offset="1" style="stop-color:#792D3D"/>
					</linearGradient>
					<path style="fill:url(#SVGID_00000129169042437136793390000016890040459265339042_);" d="M1695.568,2420.698l-77.099-48.74
						c0,0-206.517-67.896-397.595,27.835c-21.397,10.721-34.711,32.856-34.711,56.788c0,18.362,11.03,34.93,27.972,42.014
						c33.333,22.758,98.409,60.332,188.115,70.166c142.614,15.634,248.725-49.672,280.094-70.672
						c15.963-5.033,27.955-18.305,31.349-34.695C1717.134,2446.778,1709.913,2429.765,1695.568,2420.698z"/>
				</g>
				<g>
					<g>
						
							<linearGradient id="SVGID_00000165192176056959328330000016233904471667601546_" gradientUnits="userSpaceOnUse" x1="-1828.3267" y1="3025.821" x2="-1696.7534" y2="3025.821" gradientTransform="matrix(-1 0 0 1 230.2854 0)">
							<stop  offset="0" style="stop-color:#311944"/>
							<stop  offset="1" style="stop-color:#6B3976"/>
						</linearGradient>
						<path style="fill:url(#SVGID_00000165192176056959328330000016233904471667601546_);" d="M2031.643,3025.782l-65.831-39.556
							h-29.71c0,0-10.121,37.673-8.973,39.556c13.236,21.69,74.869,38.192,113.328,39.557c6.386,0.227,15.295,0.26,17.597-4.368
							C2061.955,3053.133,2044.536,3036.692,2031.643,3025.782z"/>
						
							<linearGradient id="SVGID_00000087389726634799436060000003297011474953656726_" gradientUnits="userSpaceOnUse" x1="-1737.6702" y1="3018.3464" x2="-1628.7756" y2="2691.6621" gradientTransform="matrix(-1 0 0 1 230.2854 0)">
							<stop  offset="0" style="stop-color:#FFC444"/>
							<stop  offset="0.9964" style="stop-color:#F36F56"/>
						</linearGradient>
						<path style="fill:url(#SVGID_00000087389726634799436060000003297011474953656726_);" d="M1964.648,2943.062
							c-0.109,23.047,0.875,39.306,6.645,46.457c4.061,5.034-34.976,16.362-35.191-3.293c-0.141-12.938-2.173-35.127-4.242-41.643
							C1942.789,2944.075,1953.719,2943.569,1964.648,2943.062z"/>
					</g>
					<g>
						
							<linearGradient id="SVGID_00000002347529398694343400000005301092080375870908_" gradientUnits="userSpaceOnUse" x1="-1583.4908" y1="3081.4319" x2="-1451.9172" y2="3081.4319" gradientTransform="matrix(-1 0 0 1 230.2854 0)">
							<stop  offset="0" style="stop-color:#311944"/>
							<stop  offset="1" style="stop-color:#6B3976"/>
						</linearGradient>
						<path style="fill:url(#SVGID_00000002347529398694343400000005301092080375870908_);" d="M1786.806,3081.393l-65.831-39.556
							h-29.709c0,0-10.122,37.673-8.973,39.556c13.236,21.69,74.869,38.192,113.328,39.557c6.385,0.227,15.296,0.261,17.598-4.368
							C1817.119,3108.744,1799.7,3092.303,1786.806,3081.393z"/>
						
							<linearGradient id="SVGID_00000082338249631520699610000011986810115488229039_" gradientUnits="userSpaceOnUse" x1="-1492.8334" y1="3073.9573" x2="-1383.9385" y2="2747.2717" gradientTransform="matrix(-1 0 0 1 230.2854 0)">
							<stop  offset="0" style="stop-color:#FFC444"/>
							<stop  offset="0.9964" style="stop-color:#F36F56"/>
						</linearGradient>
						<path style="fill:url(#SVGID_00000082338249631520699610000011986810115488229039_);" d="M1719.811,2998.673
							c-0.108,23.047,0.876,39.306,6.646,46.457c4.061,5.035-34.976,16.362-35.19-3.293c-0.141-12.938-2.174-35.127-4.242-41.644
							C1697.953,2999.686,1708.882,2999.18,1719.811,2998.673z"/>
					</g>
					
						<linearGradient id="SVGID_00000100380718293613929340000001907465056316963226_" gradientUnits="userSpaceOnUse" x1="1417.5322" y1="2531.6792" x2="1876.5479" y2="2580.9395">
						<stop  offset="0.0036" style="stop-color:#26264F"/>
						<stop  offset="1" style="stop-color:#444B8C"/>
					</linearGradient>
					<path style="fill:url(#SVGID_00000100380718293613929340000001907465056316963226_);" d="M1967.326,2962.205
						c18.628-112.414,0.432-232.477-3.812-297.046c-6.748-102.693-10.122-154.043-39.825-197.173
						c-38.905-56.491-118.531-112.975-185.818-160.71c-5.819-4.13-17.507-12.26-32.035-25.208
						c-36.195-32.255-59.2-66.18-73.083-90.08c-152.35-44.688-292.871-26.58-354.879,55.125
						c-7.165,9.444-25.102,29.923-28.573,60.118c-7.829,68.131,59.115,150.152,134.233,167.281
						c95.468,21.774,150.855-76.255,235.438-43.639c8.431,3.253,33.343,28.326,83.838,76.944
						c36.67,35.309,55.005,52.961,60.844,59.976c54.051,64.949,86.26,164.904,90.143,242.292
						c0.688,13.728,1.286,42.485,17.84,73.285c12.674,23.578,47.444,66.445,60.224,76.16
						C1943.682,2960.421,1955.505,2961.316,1967.326,2962.205z"/>
					
						<linearGradient id="SVGID_00000024716450154458265050000010745558820376378799_" gradientUnits="userSpaceOnUse" x1="1357.9921" y1="2655.8953" x2="1680.8337" y2="2690.5417">
						<stop  offset="0.0036" style="stop-color:#26264F"/>
						<stop  offset="1" style="stop-color:#444B8C"/>
					</linearGradient>
					<path style="fill:url(#SVGID_00000024716450154458265050000010745558820376378799_);" d="M1682.203,3017.708
						c0,0,32.592,15.39,56.78,0c-0.799-40.752-0.86-104.536,4.353-182.543c11.409-170.721,35.565-222.348,14.124-295.253
						c-15.474-52.612-57.045-124.294-179.717-191.31l-311.523-30.555c0,0-14.685,23.913-11.11,57.006
						c6.546,60.594,76.197,97.746,134.442,128.114c115.017,59.975,139.305,32.384,176.765,72.808
						c50.636,54.641,19.104,118.908,46.769,254.044C1629.796,2911.646,1659.17,2975.48,1682.203,3017.708z"/>
					<g>
						<g>
							<path style="fill:#FFFFFF;" d="M1722.619,2223.645c42.657-3.694,107.265-205.638,17.693-336.053
								c-65.963-96.041-203.451-135.685-227.443-106.552c-13.921,16.902,14.693,51.694,67.73,151.541
								C1689.411,2137.428,1693.885,2226.134,1722.619,2223.645z"/>
							<path style="fill:#FFFFFF;" d="M1248.757,1790.455c38.475-12.342,97.096-26.814,169.008-27.664
								c80.58-0.953,145.001-1.715,189.332,32.246c107.08,82.031-12.818,284.48,48.715,431.379
								c6.725,16.055,26.278,66.962,9.273,122.954c-3.137,10.327-9.598,19.394-20.652,34.754
								c-65.058,90.381-249.232,103.975-334.312,29.68c-45.148-39.425-85.85-30.674-86.94-77.34
								C1218.879,2152.231,1250.521,1967.76,1248.757,1790.455z"/>
							
								<linearGradient id="SVGID_00000169532812008361423030000001231926299947186866_" gradientUnits="userSpaceOnUse" x1="1313.7424" y1="2296.1318" x2="1531.6792" y2="2020.1731">
								<stop  offset="0" style="stop-color:#FF9085"/>
								<stop  offset="1" style="stop-color:#FB6FBB"/>
							</linearGradient>
							<path style="opacity:0.3;fill:url(#SVGID_00000169532812008361423030000001231926299947186866_);" d="M1329.893,2023.919
								c-15.492-38.126,0.56-82.403-33.999-101.018c-12.682-6.831-43.761-26.037-45.662-8.928
								c-12.579,113.254-23.855,230.117-20.213,371.266c1.202,46.611,36.511,89.093,86.42,128.364
								c57.635,45.349,156.474,57.391,240.765,39.166c-110.484-58.302-189.782-120.188-178.4-175.702
								c13.244-64.601,142.274-86.836,137.102-132.196C1510.421,2096.78,1363.704,2107.139,1329.893,2023.919z"/>
							<g>
								
									<linearGradient id="SVGID_00000061458258269550730440000011950510011911368101_" gradientUnits="userSpaceOnUse" x1="1721.6921" y1="1502.1426" x2="1732.1539" y2="1223.4733" gradientTransform="matrix(0.917 0.3988 -0.3988 0.917 399.6047 -184.8945)">
									<stop  offset="0" style="stop-color:#FFC444"/>
									<stop  offset="0.9964" style="stop-color:#F36F56"/>
								</linearGradient>
								<path style="fill:url(#SVGID_00000061458258269550730440000011950510011911368101_);" d="M1425.306,1662.435
									c0.25,27.206-3.089,48.818-6.249,63.63c-3.621,16.974-6.23,21.379-9.562,24.969c-5.015,5.405-12.62,9.979-55.647,20.178
									c-23.464,5.561-26.485,5.454-27.005,7.573c-2.53,10.334,61.395,44.566,127.17,35.231
									c40.123-5.696,76.542-26.983,74.31-37.879c-2.247-10.967-42.248-4.577-54.189-24.355
									c-8.312-13.767,1.005-33.545,12.012-49.95C1475.487,1683.749,1435.998,1680.551,1425.306,1662.435z"/>
								<g>
									
										<linearGradient id="SVGID_00000048493004659185893030000008414360283233766028_" gradientUnits="userSpaceOnUse" x1="708.9485" y1="1596.5913" x2="637.4666" y2="1415.0404" gradientTransform="matrix(-0.9687 -0.2485 -0.2485 0.9687 2456.1904 427.3052)">
										<stop  offset="0" style="stop-color:#311944"/>
										<stop  offset="1" style="stop-color:#6B3976"/>
									</linearGradient>
									<path style="fill:url(#SVGID_00000048493004659185893030000008414360283233766028_);" d="M1509.538,1696.198
										c12.302-9.015,18.382-28.252,11.344-42.899c-6.06-12.608-19.899-17.381-28.189-20.243
										c-24.05-8.299-58.093-6.031-74.976,12.333c-10.012,10.892-3.354,39.786-2.481,44.905c0.989,5.79,4.978,8.603,8.013,13.498
										c4.204,6.787,10.745,17.541,21.315,35.435c2.37-4.04,5.628-8.966,10.036-14.107c1.696-1.977,8.438-9.675,16.943-15.395
										C1488.57,1698.268,1497.868,1704.751,1509.538,1696.198z"/>
									
										<linearGradient id="SVGID_00000067951519976383785090000016443666679538507965_" gradientUnits="userSpaceOnUse" x1="771.4905" y1="1464.8339" x2="768.2925" y2="1722.4933" gradientTransform="matrix(0.982 0.1887 -0.1887 0.982 983.7829 102.0635)">
										<stop  offset="0" style="stop-color:#FFC444"/>
										<stop  offset="0.9964" style="stop-color:#F36F56"/>
									</linearGradient>
									<path style="fill:url(#SVGID_00000067951519976383785090000016443666679538507965_);" d="M1427.047,1722.229
										c0,0,9.364,28.152,42.425,33.546c29.543,4.819,50.732-53.682,35.804-70.511c-4.985-5.616-16.877-10.188-27.693-9.907
										c-6.393,0.167-9.056,1.966-19.512,2.052c-9.653,0.082-11.945-1.413-15.274,0.06c-4.165,1.845-8.503,7.703-7.773,26.416
										c-4.096-6.394-10.209-9.879-15.523-8.916c-0.849,0.154-3.205,0.941-4.871,2.567
										C1408.605,1703.423,1412.947,1713.667,1427.047,1722.229z"/>
									
										<linearGradient id="SVGID_00000121271214894400007680000005293099298559089086_" gradientUnits="userSpaceOnUse" x1="687.1134" y1="1601.6204" x2="618.1996" y2="1426.5918" gradientTransform="matrix(-0.9687 -0.2485 -0.2485 0.9687 2456.1904 427.3052)">
										<stop  offset="0" style="stop-color:#311944"/>
										<stop  offset="1" style="stop-color:#6B3976"/>
									</linearGradient>
									<path style="fill:url(#SVGID_00000121271214894400007680000005293099298559089086_);" d="M1442.498,1673.608
										c1.132,1.274-4.528,5.076-6.78,11.768c-4.376,12.991,5.701,32.061,20.181,36.761c8.555,2.776,12.346-1.507,27.245,0.378
										c9.217,1.166,16.384,3.898,20.812,5.898c0.451,15.407-7.915,28.781-20.335,33.064c-13.384,4.615-26.639-2.998-32.184-6.184
										c-3.71-2.131-15.614-8.938-19.308-21.36c-3.849-12.948,5.059-18.211-0.881-27.724c-2.997-4.8-7.907-7.698-11.015-16.382
										c-0.844-2.36-1.281-4.376-1.516-5.72C1428.316,1678.552,1440.858,1671.762,1442.498,1673.608z"/>
									
										<linearGradient id="SVGID_00000067224216266599384180000016947792991174045629_" gradientUnits="userSpaceOnUse" x1="616.9461" y1="1493.6309" x2="620.797" y2="1527.9611" gradientTransform="matrix(-0.9687 -0.2485 -0.2485 0.9687 2456.1904 427.3052)">
										<stop  offset="0" style="stop-color:#FFC444"/>
										<stop  offset="1" style="stop-color:#F36F56"/>
									</linearGradient>
									<path style="fill:url(#SVGID_00000067224216266599384180000016947792991174045629_);" d="M1491.899,1731.358
										c0,0-7.127,1.574-17.813-1.434c-0.52-0.148-1.143-0.139-1.28,0.097c-0.517,0.884,5.24,6.67,12.119,6.473
										c4.883-0.141,9.543-3.275,9.217-4.414C1494.001,1731.601,1492.957,1731.422,1491.899,1731.358z"/>
								</g>
							</g>
						</g>
					</g>
				</g>
			</g>
			<g>
				<path style="fill:#B7C0CE;" d="M2276.298,3033.654c-0.134,0-0.271-0.007-0.409-0.016c-2.738-0.212-4.852-2.494-4.852-5.241
					v-843.831c0-2.903,2.353-5.254,5.256-5.254s5.254,2.351,5.254,5.254v775.573l117.433-758.108
					c0.445-2.867,3.136-4.832,5.999-4.389c2.867,0.445,4.834,3.131,4.389,5.998l-127.881,825.561
					C2281.087,3031.779,2278.866,3033.654,2276.298,3033.654z"/>
				<g>
					<polygon style="opacity:0.81;fill:#F4F7FA;" points="850.296,2290.819 2253.231,2182.785 2942.283,2243.63 1956.487,2387.691 
											"/>
					<polygon style="fill:#B7C0CE;" points="1956.487,2387.693 850.296,2290.816 850.296,2337.609 1956.487,2434.484 
						2942.283,2290.421 2942.283,2243.63 					"/>
				</g>
				<path style="fill:#B7C0CE;" d="M1946.941,3321.59c-2.608,0-4.847-1.931-5.203-4.55l-121.613-897.836
					c-0.389-2.877,1.625-5.525,4.501-5.914c2.879-0.4,5.523,1.625,5.914,4.501l111.151,820.593v-819.886
					c0-2.903,2.351-5.256,5.254-5.256s5.254,2.353,5.254,5.256v897.836c0,2.764-2.141,5.057-4.901,5.243
					C1947.18,3321.586,1947.059,3321.59,1946.941,3321.59z"/>
				<path style="fill:#B7C0CE;" d="M2926.859,3131.293c-2.606,0-4.845-1.926-5.203-4.546l-112.716-824.832
					c-0.393-2.874,1.62-5.525,4.497-5.918c2.863-0.409,5.525,1.62,5.918,4.497l102.254,748.272v-780.215
					c0-2.903,2.351-5.254,5.254-5.254s5.254,2.351,5.254,5.254v857.486c0,2.764-2.141,5.055-4.897,5.243
					C2927.101,3131.289,2926.98,3131.293,2926.859,3131.293z"/>
				<path style="fill:#B7C0CE;" d="M863.586,3156.552c-0.127,0-0.257-0.007-0.389-0.016c-2.745-0.201-4.872-2.487-4.872-5.241
					v-813.687c0-2.903,2.353-5.254,5.257-5.254c2.903,0,5.254,2.351,5.254,5.254v741.841l109.225-742.605
					c0.42-2.872,3.091-4.881,5.963-4.434c2.872,0.422,4.856,3.091,4.434,5.963L868.78,3152.06
					C868.4,3154.655,866.169,3156.552,863.586,3156.552z"/>
			</g>
			<g>
				<path style="fill:#FFFFFF;" d="M1363.519,2274.892c8.678-9.695,17.356-19.396,26.033-29.092
					c-67.602-88.708-121.262-127.147-159.256-145.474c-26.024-12.555-24.96-20.664-26.031-23.733
					c-6.442-18.453,64.416-99.464,82.925-124.038c34.065-45.225,66.309-122.392,41.229-153.372
					c-26.109-32.251-109.291-8.206-153.373,13.193c-38.997,18.931-64.754,44.126-78.135,59.184
					c-41.476,46.675-121.294,172.307-70.29,285.492C1074.002,2262.198,1219.26,2323.277,1363.519,2274.892z"/>
			</g>
			
				<linearGradient id="SVGID_00000011001095151636864650000007305164139350924948_" gradientUnits="userSpaceOnUse" x1="1789.0695" y1="2361.3938" x2="1798.9645" y2="2316.3167">
				<stop  offset="0.0036" style="stop-color:#26264F"/>
				<stop  offset="1" style="stop-color:#444B8C"/>
			</linearGradient>
			<polygon style="fill:url(#SVGID_00000011001095151636864650000007305164139350924948_);" points="1554.256,2274.099 
				1554.256,2262.094 2070.981,2234.252 2070.981,2246.137 1705.836,2282.071 			"/>
			
				<linearGradient id="SVGID_00000042010433244495996540000010403470405626225316_" gradientUnits="userSpaceOnUse" x1="1554.2557" y1="2246.1372" x2="2070.9812" y2="2246.1372">
				<stop  offset="0.0036" style="stop-color:#26264F"/>
				<stop  offset="1" style="stop-color:#444B8C"/>
			</linearGradient>
			<polygon style="fill:url(#SVGID_00000042010433244495996540000010403470405626225316_);" points="1554.256,2262.094 
				1714.54,2264.133 2070.981,2234.252 1971.316,2228.141 			"/>
			<g>
				
					<linearGradient id="SVGID_00000041282345759020028580000006019932457789465230_" gradientUnits="userSpaceOnUse" x1="2063.0359" y1="2052.6665" x2="2011.087" y2="1928.9789">
					<stop  offset="0.0036" style="stop-color:#26264F"/>
					<stop  offset="1" style="stop-color:#444B8C"/>
				</linearGradient>
				<path style="fill:url(#SVGID_00000041282345759020028580000006019932457789465230_);" d="M1622.772,2220.692l145.323-454.694
					c2.292-7.174,10.468-12.364,19.726-12.534l636.304-11.68c5.423-0.099,14.835,3.863,18.135,7.286
					c3.298,3.42,7.795,4.047,6.559,8.474l-118.639,400.124c-1.977,6.668-9.063,11.822-17.298,12.576l-678.448,62.179
					L1622.772,2220.692z"/>
				
					<linearGradient id="SVGID_00000119101257212642214100000017398824160360777884_" gradientUnits="userSpaceOnUse" x1="1634.4344" y1="1991.2405" x2="2453.9258" y2="1991.2405">
					<stop  offset="0.0036" style="stop-color:#26264F"/>
					<stop  offset="1" style="stop-color:#444B8C"/>
				</linearGradient>
				<path style="fill:url(#SVGID_00000119101257212642214100000017398824160360777884_);" d="M1634.434,2232.423l147.37-457.778
					c2.301-7.152,10.451-12.327,19.676-12.502l634.961-12.081c5.412-0.103,10.462,1.821,13.757,5.239
					c3.293,3.416,4.485,7.963,3.25,12.387l-110.938,397.403c-1.91,6.841-9.195,12.137-17.621,12.802L1634.434,2232.423z"/>
				
					<linearGradient id="SVGID_00000034059846554642031390000016956081090232843677_" gradientUnits="userSpaceOnUse" x1="1634.4344" y1="2138.7715" x2="2376.0027" y2="2138.7715">
					<stop  offset="0.0036" style="stop-color:#26264F"/>
					<stop  offset="1" style="stop-color:#444B8C"/>
				</linearGradient>
				<path style="opacity:0.3;fill:url(#SVGID_00000034059846554642031390000016956081090232843677_);" d="M1634.434,2232.423
					l690.456-54.528c8.426-0.665,15.711-5.961,17.621-12.802l33.491-119.972c-210.429,73.57-460.458,65.498-708.362,84.155
					L1634.434,2232.423z"/>
				
					<linearGradient id="SVGID_00000128468363217420293370000011533798857464930440_" gradientUnits="userSpaceOnUse" x1="1949.1835" y1="2277.9854" x2="1995.3604" y2="2298.5999">
					<stop  offset="0" style="stop-color:#444B8C"/>
					<stop  offset="0.9964" style="stop-color:#26264F"/>
				</linearGradient>
				<path style="fill:url(#SVGID_00000128468363217420293370000011533798857464930440_);" d="M2040.238,2309.008l-26.189,9.04
					c0,0-137.693-25.856-143.689-30.077c-0.953-0.672-4.256-7.075,1.901-8.134c32.498-5.587,151.131-9.701,151.131-9.701
					l10.864,0.607L2040.238,2309.008z"/>
				
					<linearGradient id="SVGID_00000067956330278027992830000003823109418090129558_" gradientUnits="userSpaceOnUse" x1="1872.0961" y1="2286.0417" x2="2042.1174" y2="2286.0417">
					<stop  offset="0.0036" style="stop-color:#26264F"/>
					<stop  offset="1" style="stop-color:#444B8C"/>
				</linearGradient>
				<path style="fill:url(#SVGID_00000067956330278027992830000003823109418090129558_);" d="M2042.117,2300.965l-26.185,9.025
					c0,0-137.677-25.928-143.671-30.154c-6.001-4.229,153.01-17.742,153.01-17.742l10.855,0.645L2042.117,2300.965z"/>
				
					<linearGradient id="SVGID_00000165935087076307388900000004886692203292632465_" gradientUnits="userSpaceOnUse" x1="2012.5234" y1="2152.9104" x2="2224.7791" y2="2152.9104">
					<stop  offset="0" style="stop-color:#444B8C"/>
					<stop  offset="0.9964" style="stop-color:#26264F"/>
				</linearGradient>
				<path style="fill:url(#SVGID_00000165935087076307388900000004886692203292632465_);" d="M2155.964,1984.714
					c0,0,66.825,287.468,68.8,304.295c1.822,15.522-162.443,30.747-201.787,32.093c-3.282,0.112-7.609-2.151-8.928-3.055
					c-10.889-1.254,40.06-329.195,40.06-329.195l3.75,0.142L2155.964,1984.714z"/>
				
					<linearGradient id="SVGID_00000136391386813651721680000004847108890502393530_" gradientUnits="userSpaceOnUse" x1="2021.828" y1="2152.8503" x2="2233.9348" y2="2152.8503">
					<stop  offset="0.0036" style="stop-color:#26264F"/>
					<stop  offset="1" style="stop-color:#444B8C"/>
				</linearGradient>
				<path style="fill:url(#SVGID_00000136391386813651721680000004847108890502393530_);" d="M2155.964,1984.714
					c0,0,75.986,290.379,77.956,307.192c1.967,16.797-193.322,29.634-210.404,29.062c-10.872-1.25,34.345-331.974,34.345-331.974
					L2155.964,1984.714z"/>
			</g>
			
				<linearGradient id="SVGID_00000061459790533862254820000003851881303214573473_" gradientUnits="userSpaceOnUse" x1="1372.3678" y1="2269.0271" x2="1524.6019" y2="2269.0271">
				<stop  offset="0.0036" style="stop-color:#26264F"/>
				<stop  offset="1" style="stop-color:#444B8C"/>
			</linearGradient>
			<path style="fill:url(#SVGID_00000061459790533862254820000003851881303214573473_);" d="M1389.552,2262.094
				c0,0,43.349-19.837,68.379-18.066c25.029,1.772,60.251,24.548,66.374,38.043c6.126,13.496-84.689,12.021-84.689,12.021
				S1331.362,2289.874,1389.552,2262.094z"/>
			
				<linearGradient id="SVGID_00000179611434867039206370000002763233806801357496_" gradientUnits="userSpaceOnUse" x1="1409.8043" y1="2220.5671" x2="1439.1093" y2="2321.6396">
				<stop  offset="0" style="stop-color:#FFC444"/>
				<stop  offset="0.9964" style="stop-color:#F36F56"/>
			</linearGradient>
			<path style="fill:url(#SVGID_00000179611434867039206370000002763233806801357496_);" d="M1367.083,2238.907
				c24.192-30.754,81.872-11.965,85.131-10.856c13.788,4.683,32.264,14.194,30.977,20.259c-1.248,5.874-19.835,2.814-50.497,7.996
				c-44.873,7.582-64.773,24.221-72.71,15.755C1353.91,2265.581,1359.14,2249.004,1367.083,2238.907z"/>
		</g>
		<g>
			<path style="fill:#BFC6D1;" d="M2340.948,1508.007c17.116,1.441,32.257-12.414,33.817-30.947
				c1.561-18.533-11.049-34.726-28.165-36.167c-0.887-0.074-1.765-0.084-2.639-0.078c-0.816-9.573-2.309-18.948-4.457-28.062
				c0.813-0.333,1.624-0.677,2.422-1.089c15.604-8.018,22.411-28.113,15.204-44.884c-7.206-16.771-25.697-23.867-41.3-15.849
				c-0.815,0.42-1.592,0.89-2.359,1.373c-5.094-7.693-10.736-14.937-16.876-21.672c0.568-0.739,1.126-1.49,1.644-2.291
				c9.91-15.329,6.56-36.28-7.482-46.795c-14.042-10.515-33.459-6.612-43.37,8.717c-0.507,0.786-0.957,1.594-1.396,2.407
				c-7.927-3.826-16.203-6.994-24.772-9.472c0.153-0.933,0.291-1.873,0.372-2.833c1.561-18.533,4.939-39.457-12.198-40.63
				c-39.642-2.715-48.224,16.876-49.784,35.409c-0.081,0.96-0.101,1.91-0.107,2.855c-8.863,1.011-17.552,2.75-26.008,5.196
				c-0.296-0.875-0.604-1.747-0.974-2.606c-7.206-16.77-5.905-27.958-22.284-21.674c-35.717,13.703-41.427,33.94-34.221,50.711
				c0.377,0.876,0.802,1.71,1.238,2.533c-7.181,5.613-13.954,11.812-20.263,18.544c-0.675-0.604-1.362-1.199-2.096-1.749
				c-14.042-10.515-33.459-6.612-43.369,8.718c-9.91,15.33-6.559,36.28,7.483,46.795c0.719,0.539,1.461,1.015,2.206,1.479
				c-3.643,8.626-6.682,17.62-9.088,26.921c-0.861-0.152-1.729-0.29-2.615-0.365c-17.116-1.442-32.257,12.414-33.818,30.947
				c-1.561,18.533,11.049,34.726,28.165,36.167c0.886,0.074,1.764,0.084,2.639,0.078c0.816,9.572,2.308,18.948,4.457,28.061
				c-0.813,0.333-1.623,0.677-2.422,1.088c-15.603,8.019-22.411,28.114-15.204,44.885c7.206,16.771,25.697,23.866,41.3,15.848
				c0.815-0.419,1.593-0.89,2.359-1.373c5.094,7.693,10.735,14.937,16.876,21.672c-0.568,0.738-1.125,1.489-1.644,2.291
				c-9.91,15.329-6.559,36.28,7.483,46.795c14.042,10.515,44.44,5.704,54.35-9.625c0.508-0.786-10.023-0.686-9.585-1.499
				c7.927,3.826,16.204,6.994,24.772,9.472c-0.153,0.933-0.291,1.873-0.372,2.833c-1.561,18.533,11.049,34.726,28.165,36.168
				c17.116,1.441,32.257-12.414,33.818-30.947c0.081-0.96,0.101-1.91,0.107-2.856c8.863-1.01,17.552-2.749,26.008-5.195
				c0.296,0.875,0.604,1.747,0.974,2.607c7.207,16.77,25.697,23.866,41.3,15.848c15.604-8.018,22.411-28.114,15.204-44.884
				c-0.376-0.877-0.801-1.711-1.237-2.533c7.18-5.613,13.954-11.812,20.263-18.544c0.675,0.605,1.363,1.199,2.096,1.748
				c14.042,10.515,33.459,6.613,43.369-8.717c9.91-15.33,6.56-36.28-7.483-46.796c-0.719-0.537-1.461-1.014-2.206-1.477
				c3.642-8.625,6.682-17.619,9.087-26.92C2339.195,1507.794,2340.062,1507.932,2340.948,1508.007z M2164.968,1582.092
				c-62.144-5.234-107.927-64.026-102.26-131.315c5.667-67.29,60.64-117.595,122.783-112.361
				c62.145,5.234,107.928,64.026,102.26,131.316C2282.084,1537.021,2227.113,1587.326,2164.968,1582.092z"/>
			<path style="fill:#BFC6D1;" d="M2341.927,1411.664c15.603-8.018,22.411-28.114,15.205-44.885
				c-7.207-16.771-25.697-23.867-41.301-15.849c-0.816,0.419-1.592,0.89-2.359,1.373c-5.094-7.693-10.736-14.937-16.876-21.672
				c0.568-0.738,1.126-1.49,1.644-2.291c9.91-15.329,17.523-45.735,2.477-54.754c-28.558-17.117-43.418,1.348-53.328,16.676
				c-0.507,0.786-0.957,1.594-1.396,2.406c-7.927-3.825-16.203-6.993-24.772-9.472c0.153-0.933,0.292-1.873,0.373-2.833
				c0.85-10.087-2.52-19.458-8.507-26.157c-3.815,28.98-7.41,57.985-10.717,87.024c53.334,13.425,90.524,67.465,85.384,128.5
				c-4.356,51.722-37.854,93.375-81.335,107.52c0.1,5.654,0.246,11.321,0.193,16.982c-0.142,15.362-1.138,30.757-2.15,46.138
				c4.219-0.853,8.39-1.869,12.505-3.059c0.296,0.875,0.604,1.747,0.974,2.607c7.206,16.771,23.306,26.967,52.015,13.495
				c15.882-7.453,11.696-25.76,4.489-42.531c-0.376-0.876-0.801-1.71-1.237-2.533c7.18-5.613,13.954-11.812,20.263-18.544
				c0.675,0.605,1.363,1.199,2.097,1.748c14.042,10.515,45.545,4.612,55.454-10.718c9.91-15.33-5.525-34.279-19.568-44.795
				c-0.719-0.539-1.461-1.015-2.206-1.479c3.643-8.625,6.682-17.619,9.087-26.92c0.862,0.152,1.729,0.29,2.615,0.364
				c17.116,1.443,32.257-12.414,33.818-30.947c1.561-18.532-11.049-34.726-28.165-36.167c-0.887-0.074-1.765-0.084-2.639-0.078
				c-0.816-9.573-2.309-18.949-4.457-28.061C2340.317,1412.42,2341.128,1412.075,2341.927,1411.664z"/>
			<path style="fill:#FFFFFF;" d="M2356.915,1503.544c17.116,1.442,32.256-12.414,33.818-30.947
				c1.561-18.533-11.05-34.726-28.165-36.168c-0.887-0.074-1.764-0.084-2.639-0.078c-0.816-9.573-2.308-18.949-4.457-28.062
				c0.812-0.333,1.624-0.678,2.423-1.089c15.603-8.018,22.411-28.113,15.204-44.884c-7.206-16.771-25.697-23.867-41.3-15.849
				c-0.815,0.42-1.593,0.891-2.359,1.373c-5.094-7.693-10.736-14.937-16.877-21.672c0.568-0.738,1.126-1.489,1.644-2.291
				c9.91-15.329,6.56-36.28-7.483-46.795c-14.042-10.515-33.459-6.612-43.369,8.717c-0.508,0.786-0.957,1.594-1.396,2.406
				c-7.927-3.826-16.203-6.993-24.772-9.472c0.152-0.934,0.292-1.873,0.373-2.833c1.561-18.533-11.049-34.726-28.165-36.167
				c-17.116-1.442-32.256,12.413-33.818,30.946c-0.081,0.96-0.101,1.91-0.107,2.856c-8.863,1.01-17.552,2.749-26.007,5.195
				c-0.297-0.875-0.605-1.747-0.974-2.606c-7.206-16.771-25.697-23.867-41.3-15.848c-15.603,8.018-22.411,28.114-15.204,44.884
				c0.376,0.877,0.801,1.71,1.238,2.533c-7.181,5.613-13.954,11.812-20.264,18.544c-0.675-0.604-1.362-1.198-2.096-1.749
				c-14.042-10.515-33.459-6.611-43.369,8.718c-9.91,15.33-6.559,36.28,7.483,46.795c0.719,0.539,1.461,1.014,2.207,1.478
				c-3.643,8.625-6.682,17.619-9.088,26.921c-0.861-0.152-1.728-0.29-2.615-0.364c-17.116-1.442-32.257,12.414-33.818,30.947
				c-1.561,18.533,11.049,34.726,28.165,36.168c0.886,0.075,1.764,0.084,2.639,0.078c0.817,9.572,2.309,18.948,4.457,28.061
				c-0.813,0.332-1.623,0.678-2.422,1.088c-15.604,8.019-22.411,28.114-15.204,44.885c7.206,16.771,25.697,23.866,41.3,15.848
				c0.816-0.419,1.593-0.89,2.36-1.372c5.094,7.693,10.735,14.937,16.876,21.672c-0.568,0.738-1.126,1.489-1.644,2.291
				c-9.909,15.329-6.56,36.28,7.483,46.795c14.042,10.515,33.459,6.612,43.369-8.717c0.508-0.786,0.958-1.594,1.396-2.407
				c7.927,3.826,16.203,6.994,24.772,9.472c-0.152,0.933-0.292,1.873-0.373,2.833c-1.561,18.533,11.049,34.726,28.165,36.167
				c17.116,1.441,32.257-12.414,33.818-30.947c0.081-0.959,0.101-1.91,0.107-2.855c8.863-1.01,17.552-2.749,26.008-5.195
				c0.296,0.875,0.604,1.747,0.973,2.606c7.207,16.771,25.697,23.866,41.3,15.848c15.604-8.018,22.411-28.114,15.205-44.884
				c-0.377-0.877-0.801-1.711-1.238-2.534c7.181-5.613,13.954-11.811,20.263-18.544c0.675,0.604,1.363,1.198,2.096,1.748
				c14.042,10.515,33.459,6.613,43.369-8.717c9.91-15.33,6.56-36.28-7.483-46.796c-0.719-0.538-1.46-1.014-2.206-1.477
				c3.642-8.626,6.682-17.619,9.088-26.921C2355.162,1503.331,2356.028,1503.469,2356.915,1503.544z M2180.935,1577.629
				c-62.144-5.234-107.927-64.025-102.26-131.315c5.667-67.289,60.64-117.595,122.784-112.361s107.928,64.025,102.26,131.316
				C2298.052,1532.558,2243.08,1582.863,2180.935,1577.629z"/>
		</g>
		<g>
			<path style="fill:#BFC6D1;" d="M3008.289,1222.812c29.021,2.444,54.694-21.049,57.34-52.474
				c2.647-31.424-18.734-58.88-47.755-61.324c-1.504-0.127-2.992-0.142-4.475-0.133c-1.384-16.231-3.915-32.128-7.557-47.58
				c1.378-0.564,2.752-1.149,4.107-1.846c26.457-13.595,37.999-47.668,25.78-76.105c-12.218-28.438-43.571-40.469-70.028-26.874
				c-1.383,0.712-2.7,1.51-4,2.328c-8.638-13.044-18.203-25.327-28.615-36.747c0.962-1.252,1.909-2.525,2.787-3.884
				c16.803-25.991,11.123-61.516-12.687-79.345c-23.81-17.829-56.734-11.211-73.537,14.78c-0.861,1.332-1.624,2.703-2.367,4.082
				c-13.441-6.487-27.474-11.858-42.004-16.061c0.259-1.583,0.494-3.176,0.631-4.804c2.647-31.425,8.374-66.903-20.683-68.892
				c-67.216-4.603-81.767,28.616-84.414,60.04c-0.137,1.628-0.171,3.238-0.181,4.841c-15.028,1.714-29.761,4.662-44.099,8.809
				c-0.502-1.483-1.024-2.962-1.651-4.42c-12.218-28.436-10.012-47.406-37.784-36.751c-60.561,23.235-70.243,57.548-58.024,85.984
				c0.638,1.486,1.359,2.9,2.098,4.295c-12.175,9.517-23.661,20.028-34.359,31.444c-1.145-1.025-2.31-2.033-3.555-2.965
				c-23.809-17.829-56.733-11.211-73.536,14.782c-16.803,25.993-11.123,61.516,12.687,79.344c1.219,0.914,2.477,1.721,3.741,2.507
				c-6.176,14.626-11.33,29.875-15.409,45.647c-1.46-0.258-2.93-0.491-4.434-0.618c-29.021-2.444-54.694,21.048-57.341,52.473
				c-2.647,31.424,18.735,58.881,47.756,61.325c1.503,0.127,2.992,0.142,4.475,0.133c1.384,16.231,3.914,32.128,7.557,47.58
				c-1.378,0.564-2.752,1.149-4.108,1.844c-26.457,13.597-37.999,47.67-25.781,76.107c12.219,28.438,43.572,40.467,70.028,26.872
				c1.382-0.71,2.701-1.508,4-2.327c8.637,13.044,18.203,25.328,28.615,36.748c-0.962,1.252-1.908,2.525-2.787,3.884
				c-16.802,25.991-11.122,61.515,12.688,79.345c23.81,17.829,75.352,9.672,92.155-16.319c0.861-1.333-16.995-1.163-16.251-2.542
				c13.44,6.487,27.474,11.859,42.003,16.062c-0.258,1.583-0.494,3.176-0.631,4.803c-2.647,31.425,18.734,58.881,47.756,61.326
				c29.021,2.444,54.694-21.049,57.341-52.474c0.137-1.628,0.171-3.239,0.181-4.842c15.028-1.713,29.762-4.661,44.098-8.809
				c0.502,1.484,1.025,2.962,1.651,4.42c12.219,28.435,43.572,40.467,70.028,26.872c26.457-13.595,38-47.67,25.78-76.105
				c-0.638-1.486-1.359-2.9-2.098-4.295c12.175-9.517,23.66-20.028,34.358-31.443c1.145,1.025,2.311,2.032,3.554,2.964
				c23.81,17.829,56.733,11.213,73.537-14.781c16.803-25.993,11.122-61.516-12.688-79.347c-1.219-0.912-2.477-1.719-3.74-2.505
				c6.175-14.625,11.33-29.875,15.408-45.646C3005.316,1222.451,3006.785,1222.686,3008.289,1222.812z M2709.898,1348.43
				c-105.37-8.875-183-108.561-173.391-222.657c9.609-114.095,102.82-199.393,208.19-190.518
				c105.372,8.875,183.002,108.561,173.392,222.657C2908.48,1272.008,2815.271,1357.305,2709.898,1348.43z"/>
			<path style="fill:#BFC6D1;" d="M3009.949,1059.455c26.457-13.596,37.999-47.669,25.78-76.106
				c-12.219-28.437-43.572-40.468-70.028-26.872c-1.384,0.71-2.7,1.51-4,2.328c-8.638-13.045-18.203-25.327-28.615-36.747
				c0.963-1.251,1.909-2.525,2.787-3.884c16.802-25.991,29.712-77.548,4.199-92.84c-48.423-29.024-73.62,2.285-90.423,28.276
				c-0.861,1.332-1.624,2.702-2.367,4.08c-13.441-6.486-27.473-11.857-42.004-16.06c0.259-1.583,0.495-3.176,0.632-4.804
				c1.44-17.102-4.273-32.993-14.425-44.352c-6.469,49.138-12.565,98.319-18.172,147.556
				c90.432,22.764,153.492,114.392,144.776,217.883c-7.386,87.699-64.185,158.325-137.911,182.309
				c0.17,9.586,0.417,19.195,0.328,28.794c-0.241,26.048-1.93,52.152-3.646,78.232c7.153-1.446,14.226-3.169,21.203-5.187
				c0.502,1.484,1.025,2.963,1.651,4.42c12.219,28.437,39.518,45.726,88.196,22.882c26.928-12.637,19.831-43.679,7.612-72.115
				c-0.638-1.486-1.359-2.901-2.098-4.295c12.175-9.518,23.66-20.028,34.358-31.443c1.145,1.025,2.311,2.032,3.555,2.964
				c23.81,17.829,77.225,7.819,94.028-18.173c16.804-25.993-9.369-58.123-33.179-75.953c-1.219-0.913-2.477-1.72-3.741-2.507
				c6.177-14.625,11.329-29.875,15.409-45.645c1.461,0.258,2.931,0.492,4.434,0.617c29.022,2.446,54.694-21.049,57.341-52.474
				c2.646-31.423-18.735-58.881-47.757-61.324c-1.504-0.126-2.992-0.142-4.475-0.132c-1.384-16.231-3.915-32.129-7.557-47.58
				C3007.219,1060.736,3008.594,1060.151,3009.949,1059.455z"/>
			<path style="fill:#FFFFFF;" d="M3035.362,1215.245c29.021,2.445,54.694-21.048,57.341-52.473
				c2.647-31.425-18.735-58.881-47.757-61.325c-1.503-0.127-2.992-0.142-4.474-0.132c-1.384-16.232-3.914-32.129-7.557-47.581
				c1.377-0.564,2.753-1.149,4.107-1.846c26.457-13.595,38-47.668,25.781-76.105c-12.219-28.437-43.571-40.469-70.028-26.873
				c-1.383,0.712-2.7,1.51-4,2.328c-8.638-13.044-18.204-25.327-28.615-36.747c0.962-1.251,1.909-2.525,2.787-3.884
				c16.803-25.991,11.122-61.516-12.688-79.344c-23.81-17.83-56.734-11.211-73.536,14.779c-0.861,1.333-1.623,2.703-2.367,4.081
				c-13.441-6.487-27.474-11.858-42.004-16.06c0.258-1.583,0.495-3.176,0.632-4.805c2.647-31.424-18.735-58.88-47.757-61.324
				c-29.021-2.444-54.694,21.048-57.341,52.473c-0.137,1.628-0.171,3.239-0.182,4.843c-15.028,1.713-29.761,4.661-44.098,8.808
				c-0.502-1.483-1.025-2.962-1.651-4.419c-12.219-28.436-43.572-40.468-70.029-26.872c-26.456,13.595-37.999,47.67-25.78,76.105
				c0.639,1.487,1.358,2.9,2.099,4.295c-12.176,9.518-23.661,20.028-34.359,31.443c-1.145-1.024-2.31-2.031-3.555-2.965
				c-23.81-17.829-56.733-11.211-73.536,14.782c-16.804,25.993-11.123,61.515,12.687,79.345c1.22,0.913,2.477,1.72,3.741,2.507
				c-6.177,14.625-11.329,29.876-15.41,45.646c-1.46-0.258-2.93-0.491-4.433-0.618c-29.022-2.445-54.694,21.049-57.341,52.473
				c-2.646,31.425,18.734,58.88,47.756,61.325c1.503,0.127,2.992,0.142,4.474,0.132c1.385,16.231,3.915,32.129,7.557,47.581
				c-1.377,0.564-2.752,1.149-4.107,1.845c-26.457,13.597-37.999,47.669-25.781,76.107c12.219,28.437,43.572,40.467,70.028,26.871
				c1.382-0.71,2.7-1.508,4-2.327c8.638,13.044,18.203,25.327,28.615,36.748c-0.963,1.251-1.909,2.525-2.787,3.884
				c-16.802,25.991-11.123,61.516,12.688,79.344c23.81,17.829,56.734,11.212,73.536-14.78c0.861-1.333,1.624-2.703,2.367-4.081
				c13.44,6.487,27.474,11.858,42.003,16.061c-0.258,1.583-0.494,3.176-0.631,4.804c-2.646,31.424,18.735,58.88,47.756,61.325
				c29.022,2.444,54.695-21.049,57.34-52.474c0.138-1.627,0.172-3.238,0.182-4.842c15.027-1.713,29.762-4.661,44.098-8.809
				c0.503,1.484,1.026,2.962,1.651,4.419c12.219,28.436,43.572,40.467,70.028,26.872c26.458-13.595,38-47.669,25.781-76.105
				c-0.639-1.487-1.358-2.9-2.098-4.296c12.175-9.517,23.66-20.028,34.358-31.443c1.145,1.024,2.31,2.031,3.554,2.963
				c23.811,17.829,56.734,11.213,73.536-14.78c16.803-25.993,11.123-61.516-12.687-79.347c-1.22-0.912-2.477-1.719-3.741-2.505
				c6.176-14.625,11.329-29.875,15.409-45.646C3032.389,1214.884,3033.858,1215.118,3035.362,1215.245z M2736.972,1340.863
				c-105.371-8.875-183.001-108.561-173.391-222.657c9.609-114.096,102.82-199.393,208.19-190.518
				c105.371,8.875,183.001,108.561,173.391,222.657C2935.554,1264.441,2842.344,1349.738,2736.972,1340.863z"/>
		</g>
	</g>
</g>
</svg>
